<mxfile host="app.diagrams.net" modified="2024-03-30T09:55:47.243Z" agent="Mozilla/5.0 (X11; Linux x86_64) AppleWebKit/537.36 (KHTML, like Gecko) Chrome/123.0.0.0 Safari/537.36" etag="zbFUjIwW6EJcj1Z5-frQ" version="24.2.1" type="device">
  <diagram name="Page-1" id="-RjFL5D9EAI7xjsFXRGc">
    <mxGraphModel dx="880" dy="447" grid="1" gridSize="10" guides="1" tooltips="1" connect="1" arrows="1" fold="1" page="1" pageScale="1" pageWidth="850" pageHeight="1100" math="0" shadow="0">
      <root>
        <mxCell id="0" />
        <mxCell id="1" parent="0" />
        <mxCell id="QEk8LFcl2dOFlMEfwZ7T-1" value="employees" style="rounded=0;whiteSpace=wrap;html=1;" vertex="1" parent="1">
          <mxGeometry x="100" y="220" width="90" height="40" as="geometry" />
        </mxCell>
        <mxCell id="QEk8LFcl2dOFlMEfwZ7T-2" value="id" style="ellipse;whiteSpace=wrap;html=1;align=center;fontStyle=4;" vertex="1" parent="1">
          <mxGeometry x="20" y="170" width="80" height="30" as="geometry" />
        </mxCell>
        <mxCell id="QEk8LFcl2dOFlMEfwZ7T-3" value="name" style="ellipse;whiteSpace=wrap;html=1;align=center;" vertex="1" parent="1">
          <mxGeometry x="100" y="120" width="100" height="40" as="geometry" />
        </mxCell>
        <mxCell id="QEk8LFcl2dOFlMEfwZ7T-4" value="address" style="ellipse;whiteSpace=wrap;html=1;align=center;" vertex="1" parent="1">
          <mxGeometry y="290" width="100" height="40" as="geometry" />
        </mxCell>
        <mxCell id="QEk8LFcl2dOFlMEfwZ7T-5" value="contact" style="ellipse;whiteSpace=wrap;html=1;align=center;" vertex="1" parent="1">
          <mxGeometry x="120" y="300" width="100" height="40" as="geometry" />
        </mxCell>
        <mxCell id="QEk8LFcl2dOFlMEfwZ7T-7" value="" style="endArrow=none;html=1;rounded=0;entryX=0.5;entryY=1;entryDx=0;entryDy=0;exitX=0.5;exitY=0;exitDx=0;exitDy=0;" edge="1" parent="1" source="QEk8LFcl2dOFlMEfwZ7T-1" target="QEk8LFcl2dOFlMEfwZ7T-3">
          <mxGeometry width="50" height="50" relative="1" as="geometry">
            <mxPoint x="400" y="260" as="sourcePoint" />
            <mxPoint x="450" y="210" as="targetPoint" />
          </mxGeometry>
        </mxCell>
        <mxCell id="QEk8LFcl2dOFlMEfwZ7T-8" value="" style="endArrow=none;html=1;rounded=0;entryX=0.5;entryY=1;entryDx=0;entryDy=0;exitX=0;exitY=0;exitDx=0;exitDy=0;" edge="1" parent="1" source="QEk8LFcl2dOFlMEfwZ7T-1">
          <mxGeometry width="50" height="50" relative="1" as="geometry">
            <mxPoint x="57.5" y="260" as="sourcePoint" />
            <mxPoint x="62.5" y="200" as="targetPoint" />
          </mxGeometry>
        </mxCell>
        <mxCell id="QEk8LFcl2dOFlMEfwZ7T-9" value="" style="endArrow=none;html=1;rounded=0;entryX=0.57;entryY=0;entryDx=0;entryDy=0;exitX=0;exitY=0.75;exitDx=0;exitDy=0;entryPerimeter=0;exitPerimeter=0;" edge="1" parent="1" source="QEk8LFcl2dOFlMEfwZ7T-1" target="QEk8LFcl2dOFlMEfwZ7T-4">
          <mxGeometry width="50" height="50" relative="1" as="geometry">
            <mxPoint x="97.5" y="260" as="sourcePoint" />
            <mxPoint x="60" y="240" as="targetPoint" />
          </mxGeometry>
        </mxCell>
        <mxCell id="QEk8LFcl2dOFlMEfwZ7T-10" value="" style="endArrow=none;html=1;rounded=0;entryX=0.43;entryY=-0.05;entryDx=0;entryDy=0;entryPerimeter=0;" edge="1" parent="1" source="QEk8LFcl2dOFlMEfwZ7T-1" target="QEk8LFcl2dOFlMEfwZ7T-5">
          <mxGeometry width="50" height="50" relative="1" as="geometry">
            <mxPoint x="171.5" y="260" as="sourcePoint" />
            <mxPoint x="128.5" y="300" as="targetPoint" />
          </mxGeometry>
        </mxCell>
        <mxCell id="QEk8LFcl2dOFlMEfwZ7T-12" value="loan_types" style="whiteSpace=wrap;html=1;align=center;" vertex="1" parent="1">
          <mxGeometry x="670" y="220" width="100" height="40" as="geometry" />
        </mxCell>
        <mxCell id="QEk8LFcl2dOFlMEfwZ7T-13" value="id" style="ellipse;whiteSpace=wrap;html=1;align=center;fontStyle=4;" vertex="1" parent="1">
          <mxGeometry x="670" y="140" width="80" height="30" as="geometry" />
        </mxCell>
        <mxCell id="QEk8LFcl2dOFlMEfwZ7T-15" value="type" style="ellipse;whiteSpace=wrap;html=1;align=center;" vertex="1" parent="1">
          <mxGeometry x="780" y="170" width="100" height="40" as="geometry" />
        </mxCell>
        <mxCell id="QEk8LFcl2dOFlMEfwZ7T-18" value="" style="endArrow=none;html=1;rounded=0;entryX=0.5;entryY=1;entryDx=0;entryDy=0;exitX=0.33;exitY=0;exitDx=0;exitDy=0;exitPerimeter=0;" edge="1" parent="1" source="QEk8LFcl2dOFlMEfwZ7T-12" target="QEk8LFcl2dOFlMEfwZ7T-13">
          <mxGeometry width="50" height="50" relative="1" as="geometry">
            <mxPoint x="710" y="230" as="sourcePoint" />
            <mxPoint x="715" y="170" as="targetPoint" />
          </mxGeometry>
        </mxCell>
        <mxCell id="QEk8LFcl2dOFlMEfwZ7T-19" value="" style="endArrow=none;html=1;rounded=0;entryX=0.38;entryY=1.025;entryDx=0;entryDy=0;exitX=1;exitY=0.5;exitDx=0;exitDy=0;entryPerimeter=0;" edge="1" parent="1" source="QEk8LFcl2dOFlMEfwZ7T-12" target="QEk8LFcl2dOFlMEfwZ7T-15">
          <mxGeometry width="50" height="50" relative="1" as="geometry">
            <mxPoint x="830.98" y="257.99" as="sourcePoint" />
            <mxPoint x="828.98" y="209.99" as="targetPoint" />
          </mxGeometry>
        </mxCell>
        <mxCell id="QEk8LFcl2dOFlMEfwZ7T-20" value="" style="endArrow=none;html=1;rounded=0;entryX=0;entryY=0.5;entryDx=0;entryDy=0;" edge="1" parent="1" source="QEk8LFcl2dOFlMEfwZ7T-23" target="QEk8LFcl2dOFlMEfwZ7T-12">
          <mxGeometry relative="1" as="geometry">
            <mxPoint x="190" y="240" as="sourcePoint" />
            <mxPoint x="350" y="240" as="targetPoint" />
          </mxGeometry>
        </mxCell>
        <mxCell id="QEk8LFcl2dOFlMEfwZ7T-22" value="N" style="resizable=0;html=1;whiteSpace=wrap;align=right;verticalAlign=bottom;" connectable="0" vertex="1" parent="QEk8LFcl2dOFlMEfwZ7T-20">
          <mxGeometry x="1" relative="1" as="geometry" />
        </mxCell>
        <mxCell id="QEk8LFcl2dOFlMEfwZ7T-24" value="" style="endArrow=none;html=1;rounded=0;entryX=0;entryY=0.5;entryDx=0;entryDy=0;" edge="1" parent="1" target="QEk8LFcl2dOFlMEfwZ7T-23">
          <mxGeometry relative="1" as="geometry">
            <mxPoint x="190" y="240" as="sourcePoint" />
            <mxPoint x="670" y="240" as="targetPoint" />
          </mxGeometry>
        </mxCell>
        <mxCell id="QEk8LFcl2dOFlMEfwZ7T-25" value="M" style="resizable=0;html=1;whiteSpace=wrap;align=left;verticalAlign=bottom;" connectable="0" vertex="1" parent="QEk8LFcl2dOFlMEfwZ7T-24">
          <mxGeometry x="-1" relative="1" as="geometry" />
        </mxCell>
        <mxCell id="QEk8LFcl2dOFlMEfwZ7T-23" value="employee_loan" style="shape=associativeEntity;whiteSpace=wrap;html=1;align=center;" vertex="1" parent="1">
          <mxGeometry x="370" y="210" width="100" height="60" as="geometry" />
        </mxCell>
        <mxCell id="QEk8LFcl2dOFlMEfwZ7T-27" value="id" style="ellipse;whiteSpace=wrap;html=1;align=center;fontStyle=4;" vertex="1" parent="1">
          <mxGeometry x="320" y="125" width="80" height="30" as="geometry" />
        </mxCell>
        <mxCell id="QEk8LFcl2dOFlMEfwZ7T-28" value="" style="endArrow=none;html=1;rounded=0;exitX=0.19;exitY=0.05;exitDx=0;exitDy=0;exitPerimeter=0;entryX=0.388;entryY=0.933;entryDx=0;entryDy=0;entryPerimeter=0;" edge="1" parent="1" source="QEk8LFcl2dOFlMEfwZ7T-23" target="QEk8LFcl2dOFlMEfwZ7T-27">
          <mxGeometry width="50" height="50" relative="1" as="geometry">
            <mxPoint x="356.5" y="210" as="sourcePoint" />
            <mxPoint x="360" y="170" as="targetPoint" />
          </mxGeometry>
        </mxCell>
        <mxCell id="QEk8LFcl2dOFlMEfwZ7T-29" value="employee_id" style="ellipse;whiteSpace=wrap;html=1;align=center;" vertex="1" parent="1">
          <mxGeometry x="425" y="115" width="100" height="40" as="geometry" />
        </mxCell>
        <mxCell id="QEk8LFcl2dOFlMEfwZ7T-30" value="loan_type_id" style="ellipse;whiteSpace=wrap;html=1;align=center;" vertex="1" parent="1">
          <mxGeometry x="490" y="165" width="100" height="40" as="geometry" />
        </mxCell>
        <mxCell id="QEk8LFcl2dOFlMEfwZ7T-31" value="loan_amount" style="ellipse;whiteSpace=wrap;html=1;align=center;" vertex="1" parent="1">
          <mxGeometry x="260" y="310" width="100" height="40" as="geometry" />
        </mxCell>
        <mxCell id="QEk8LFcl2dOFlMEfwZ7T-32" value="payed_amount" style="ellipse;whiteSpace=wrap;html=1;align=center;" vertex="1" parent="1">
          <mxGeometry x="330" y="360" width="100" height="40" as="geometry" />
        </mxCell>
        <mxCell id="QEk8LFcl2dOFlMEfwZ7T-33" value="balance_amount" style="ellipse;whiteSpace=wrap;html=1;align=center;" vertex="1" parent="1">
          <mxGeometry x="430" y="330" width="100" height="40" as="geometry" />
        </mxCell>
        <mxCell id="QEk8LFcl2dOFlMEfwZ7T-34" value="grant_date" style="ellipse;whiteSpace=wrap;html=1;align=center;" vertex="1" parent="1">
          <mxGeometry x="510" y="280" width="100" height="40" as="geometry" />
        </mxCell>
        <mxCell id="QEk8LFcl2dOFlMEfwZ7T-35" value="" style="endArrow=none;html=1;rounded=0;exitX=0.5;exitY=0;exitDx=0;exitDy=0;entryX=0;entryY=1;entryDx=0;entryDy=0;" edge="1" parent="1" source="QEk8LFcl2dOFlMEfwZ7T-23" target="QEk8LFcl2dOFlMEfwZ7T-29">
          <mxGeometry width="50" height="50" relative="1" as="geometry">
            <mxPoint x="399" y="223" as="sourcePoint" />
            <mxPoint x="361" y="163" as="targetPoint" />
          </mxGeometry>
        </mxCell>
        <mxCell id="QEk8LFcl2dOFlMEfwZ7T-36" value="" style="endArrow=none;html=1;rounded=0;exitX=1;exitY=0;exitDx=0;exitDy=0;entryX=0.24;entryY=0.925;entryDx=0;entryDy=0;entryPerimeter=0;" edge="1" parent="1" source="QEk8LFcl2dOFlMEfwZ7T-23" target="QEk8LFcl2dOFlMEfwZ7T-30">
          <mxGeometry width="50" height="50" relative="1" as="geometry">
            <mxPoint x="409" y="233" as="sourcePoint" />
            <mxPoint x="371" y="173" as="targetPoint" />
          </mxGeometry>
        </mxCell>
        <mxCell id="QEk8LFcl2dOFlMEfwZ7T-37" value="" style="endArrow=none;html=1;rounded=0;exitX=0.1;exitY=1;exitDx=0;exitDy=0;exitPerimeter=0;entryX=0.5;entryY=0;entryDx=0;entryDy=0;" edge="1" parent="1" source="QEk8LFcl2dOFlMEfwZ7T-23" target="QEk8LFcl2dOFlMEfwZ7T-31">
          <mxGeometry width="50" height="50" relative="1" as="geometry">
            <mxPoint x="419" y="243" as="sourcePoint" />
            <mxPoint x="381" y="183" as="targetPoint" />
          </mxGeometry>
        </mxCell>
        <mxCell id="QEk8LFcl2dOFlMEfwZ7T-38" value="" style="endArrow=none;html=1;rounded=0;exitX=0.39;exitY=1.033;exitDx=0;exitDy=0;exitPerimeter=0;entryX=0.61;entryY=0.025;entryDx=0;entryDy=0;entryPerimeter=0;" edge="1" parent="1" source="QEk8LFcl2dOFlMEfwZ7T-23" target="QEk8LFcl2dOFlMEfwZ7T-32">
          <mxGeometry width="50" height="50" relative="1" as="geometry">
            <mxPoint x="429" y="253" as="sourcePoint" />
            <mxPoint x="391" y="193" as="targetPoint" />
          </mxGeometry>
        </mxCell>
        <mxCell id="QEk8LFcl2dOFlMEfwZ7T-39" value="" style="endArrow=none;html=1;rounded=0;entryX=0.2;entryY=0;entryDx=0;entryDy=0;entryPerimeter=0;" edge="1" parent="1" target="QEk8LFcl2dOFlMEfwZ7T-33">
          <mxGeometry width="50" height="50" relative="1" as="geometry">
            <mxPoint x="439" y="270" as="sourcePoint" />
            <mxPoint x="401" y="203" as="targetPoint" />
          </mxGeometry>
        </mxCell>
        <mxCell id="QEk8LFcl2dOFlMEfwZ7T-40" value="" style="endArrow=none;html=1;rounded=0;exitX=1;exitY=1;exitDx=0;exitDy=0;entryX=0.24;entryY=0.125;entryDx=0;entryDy=0;entryPerimeter=0;" edge="1" parent="1" source="QEk8LFcl2dOFlMEfwZ7T-23" target="QEk8LFcl2dOFlMEfwZ7T-34">
          <mxGeometry width="50" height="50" relative="1" as="geometry">
            <mxPoint x="449" y="273" as="sourcePoint" />
            <mxPoint x="411" y="213" as="targetPoint" />
          </mxGeometry>
        </mxCell>
      </root>
    </mxGraphModel>
  </diagram>
</mxfile>
